<svg width="88" height="101" viewBox="0 0 88 101" fill="none" xmlns="http://www.w3.org/2000/svg">
<path d="M72.8823 39.3573L46.6471 13.1256C45.1461 11.6248 42.6662 11.6248 41.1651 13.1256L35.7484 18.5416L42.6662 25.4584C44.2977 24.9364 46.125 25.2626 47.365 26.5677C48.6702 27.8728 48.9965 29.6998 48.4744 31.3312L55.1311 37.987C56.7627 37.4649 58.59 37.7912 59.8952 39.0963C61.7225 40.8581 61.7225 43.7945 59.8952 45.6215C58.0679 47.4486 55.1964 47.4486 53.3691 45.6215C51.9986 44.2512 51.6722 42.2936 52.3901 40.5971L46.1903 34.398V50.7113C46.6471 50.907 47.0387 51.2333 47.4302 51.5595C49.2576 53.3214 49.2576 56.2578 47.4302 58.0848C45.6029 59.8467 42.7314 59.8467 40.9041 58.0848C39.0768 56.2578 39.0768 53.3866 40.9041 51.5595C41.3609 51.1028 41.883 50.7765 42.4051 50.5808V34.0718C41.883 33.876 41.3609 33.4845 40.9041 33.093C39.5336 31.7227 39.2073 29.7651 39.9252 28.0685L33.0727 21.2822L15.1258 39.2268C13.6247 40.7276 13.6247 43.2072 15.1258 44.708L41.2957 70.8744C42.7967 72.3752 45.2766 72.3752 46.7776 70.8744L72.817 44.8385C74.3833 43.2724 74.3833 40.8581 72.8823 39.3573Z" fill="white"/>
<path d="M39.2683 89.32C39.0656 88.9467 38.7723 88.664 38.3883 88.472C38.015 88.2693 37.5723 88.168 37.0603 88.168C36.175 88.168 35.4656 88.4613 34.9323 89.048C34.399 89.624 34.1323 90.3973 34.1323 91.368C34.1323 92.4027 34.4096 93.2133 34.9643 93.8C35.5296 94.376 36.303 94.664 37.2843 94.664C37.9563 94.664 38.5216 94.4933 38.9803 94.152C39.4496 93.8107 39.791 93.32 40.0043 92.68H36.5323V90.664H42.4843V93.208C42.2816 93.8907 41.935 94.5253 41.4443 95.112C40.9643 95.6987 40.351 96.1733 39.6043 96.536C38.8576 96.8987 38.015 97.08 37.0763 97.08C35.967 97.08 34.975 96.84 34.1003 96.36C33.2363 95.8693 32.559 95.192 32.0683 94.328C31.5883 93.464 31.3483 92.4773 31.3483 91.368C31.3483 90.2587 31.5883 89.272 32.0683 88.408C32.559 87.5333 33.2363 86.856 34.1003 86.376C34.9643 85.8853 35.951 85.64 37.0603 85.64C38.4043 85.64 39.535 85.9653 40.4523 86.616C41.3803 87.2667 41.9936 88.168 42.2923 89.32H39.2683ZM46.7358 85.768V97H43.9998V85.768H46.7358ZM56.7986 85.768V87.96H53.8226V97H51.0866V87.96H48.1106V85.768H56.7986Z" fill="white"/>
</svg>
