<svg width="90" height="102" viewBox="0 0 90 102" fill="none" xmlns="http://www.w3.org/2000/svg">
<path d="M15 12C35.0135 12 54.9865 12 75 12C75 32.0135 75 52.027 75 72C55.027 72 35.0135 72 15 72C15 51.946 15 31.973 15 12ZM68.6799 43.7623C67.4645 41.5746 65.8035 40.0756 63.4132 39.549C61.7117 39.1438 60.0101 39.1438 58.3086 39.5084C52.7988 40.6428 50.449 47.287 54.0142 51.7029C55.2701 53.2424 56.9311 54.1742 58.6732 54.9845C60.2127 55.7137 61.7927 56.4024 63.3322 57.1722C64.3855 57.6988 64.8312 58.6712 64.7097 59.846C64.5881 61.0209 63.7778 61.6691 62.765 62.0338C60.4963 62.844 57.8629 62.1148 56.3234 60.2107C55.9993 59.8055 55.6752 59.3599 55.3511 58.9142C53.8116 59.8055 52.3126 60.6563 50.8136 61.5476C51.7454 63.3707 53.0419 64.8292 54.8244 65.8015C57.8629 67.4625 61.0635 67.7056 64.345 66.8953C66.4922 66.3687 68.3153 65.2748 69.4497 63.2897C71.5564 59.5219 70.341 54.8224 66.6138 52.5132C64.9527 51.5003 63.0891 50.8116 61.3471 49.9203C60.4963 49.4747 59.605 49.0695 58.8758 48.5024C57.5793 47.449 57.8224 45.3423 59.2809 44.5321C60.6988 43.7218 62.684 44.208 63.7778 45.6259C64.0209 45.9095 64.183 46.2336 64.4261 46.5577C65.8035 45.6259 67.2215 44.6941 68.6799 43.7623ZM30.8001 62.1553C31.6104 63.8974 32.7853 65.2748 34.4463 66.1661C36.5935 67.341 38.9433 67.5435 41.3336 67.1789C43.4808 66.8548 45.2633 65.8825 46.4382 63.9379C47.4105 62.3173 47.6941 60.5348 47.6941 58.6306C47.6941 52.4726 47.6941 46.3147 47.6941 40.1566C47.6941 39.9946 47.6941 39.792 47.6941 39.5895C45.79 39.5895 43.9669 39.5895 42.0628 39.5895C42.0628 39.8325 42.0628 40.0351 42.0628 40.2782C42.0628 46.3552 42.0628 52.3916 42.0628 58.4686C42.0628 59.0358 42.0223 59.6435 41.9413 60.2107C41.7792 61.1425 41.293 61.8312 40.3612 62.1148C38.6192 62.6415 37.2012 62.1148 36.1884 60.6158C35.9453 60.2107 35.7022 59.8055 35.4186 59.4004C33.8386 60.3322 32.3396 61.2235 30.8001 62.1553Z" fill="white"/>
<path d="M8.31325 85.768V93.416C8.31325 94.6 7.97725 95.512 7.30525 96.152C6.64392 96.792 5.74792 97.112 4.61725 97.112C3.43325 97.112 2.48392 96.776 1.76925 96.104C1.05458 95.432 0.69725 94.4773 0.69725 93.24H3.41725C3.41725 93.7093 3.51325 94.0667 3.70525 94.312C3.89725 94.5467 4.17458 94.664 4.53725 94.664C4.86792 94.664 5.12392 94.5573 5.30525 94.344C5.48658 94.1307 5.57725 93.8213 5.57725 93.416V85.768H8.31325ZM9.97925 92.52C9.97925 91.6027 10.1499 90.7973 10.4913 90.104C10.8433 89.4107 11.3179 88.8773 11.9153 88.504C12.5126 88.1307 13.1793 87.944 13.9153 87.944C14.5446 87.944 15.0939 88.072 15.5633 88.328C16.0433 88.584 16.4113 88.92 16.6673 89.336V88.072H19.4033V97H16.6673V95.736C16.4006 96.152 16.0273 96.488 15.5473 96.744C15.0779 97 14.5286 97.128 13.8993 97.128C13.1739 97.128 12.5126 96.9413 11.9153 96.568C11.3179 96.184 10.8433 95.6453 10.4913 94.952C10.1499 94.248 9.97925 93.4373 9.97925 92.52ZM16.6673 92.536C16.6673 91.8533 16.4753 91.3147 16.0913 90.92C15.7179 90.5253 15.2593 90.328 14.7153 90.328C14.1713 90.328 13.7073 90.5253 13.3233 90.92C12.9499 91.304 12.7633 91.8373 12.7633 92.52C12.7633 93.2027 12.9499 93.7467 13.3233 94.152C13.7073 94.5467 14.1713 94.744 14.7153 94.744C15.2593 94.744 15.7179 94.5467 16.0913 94.152C16.4753 93.7573 16.6673 93.2187 16.6673 92.536ZM25.3986 94.44L27.3346 88.072H30.2466L27.0786 97H23.7026L20.5346 88.072H23.4626L25.3986 94.44ZM30.8543 92.52C30.8543 91.6027 31.0249 90.7973 31.3663 90.104C31.7183 89.4107 32.1929 88.8773 32.7903 88.504C33.3876 88.1307 34.0543 87.944 34.7903 87.944C35.4196 87.944 35.9689 88.072 36.4383 88.328C36.9183 88.584 37.2863 88.92 37.5423 89.336V88.072H40.2783V97H37.5423V95.736C37.2756 96.152 36.9023 96.488 36.4223 96.744C35.9529 97 35.4036 97.128 34.7743 97.128C34.0489 97.128 33.3876 96.9413 32.7903 96.568C32.1929 96.184 31.7183 95.6453 31.3663 94.952C31.0249 94.248 30.8543 93.4373 30.8543 92.52ZM37.5423 92.536C37.5423 91.8533 37.3503 91.3147 36.9663 90.92C36.5929 90.5253 36.1343 90.328 35.5903 90.328C35.0463 90.328 34.5823 90.5253 34.1983 90.92C33.8249 91.304 33.6383 91.8373 33.6383 92.52C33.6383 93.2027 33.8249 93.7467 34.1983 94.152C34.5823 94.5467 35.0463 94.744 35.5903 94.744C36.1343 94.744 36.5929 94.5467 36.9663 94.152C37.3503 93.7573 37.5423 93.2187 37.5423 92.536ZM46.3216 97.112C45.5003 97.112 44.7643 96.9787 44.1136 96.712C43.463 96.4453 42.9403 96.0507 42.5456 95.528C42.1616 95.0053 41.959 94.376 41.9376 93.64H44.8496C44.8923 94.056 45.0363 94.376 45.2816 94.6C45.527 94.8133 45.847 94.92 46.2416 94.92C46.647 94.92 46.967 94.8293 47.2016 94.648C47.4363 94.456 47.5536 94.1947 47.5536 93.864C47.5536 93.5867 47.4576 93.3573 47.2656 93.176C47.0843 92.9947 46.855 92.8453 46.5776 92.728C46.311 92.6107 45.927 92.4773 45.4256 92.328C44.7003 92.104 44.1083 91.88 43.6496 91.656C43.191 91.432 42.7963 91.1013 42.4656 90.664C42.135 90.2267 41.9696 89.656 41.9696 88.952C41.9696 87.9067 42.3483 87.0907 43.1056 86.504C43.863 85.9067 44.8496 85.608 46.0656 85.608C47.303 85.608 48.3003 85.9067 49.0576 86.504C49.815 87.0907 50.2203 87.912 50.2736 88.968H47.3136C47.2923 88.6053 47.159 88.3227 46.9136 88.12C46.6683 87.9067 46.3536 87.8 45.9696 87.8C45.639 87.8 45.3723 87.8907 45.1696 88.072C44.967 88.2427 44.8656 88.4933 44.8656 88.824C44.8656 89.1867 45.0363 89.4693 45.3776 89.672C45.719 89.8747 46.2523 90.0933 46.9776 90.328C47.703 90.5733 48.2896 90.808 48.7376 91.032C49.1963 91.256 49.591 91.5813 49.9216 92.008C50.2523 92.4347 50.4176 92.984 50.4176 93.656C50.4176 94.296 50.2523 94.8773 49.9216 95.4C49.6016 95.9227 49.1323 96.3387 48.5136 96.648C47.895 96.9573 47.1643 97.112 46.3216 97.112ZM51.5574 92.536C51.5574 91.608 51.744 90.7973 52.1174 90.104C52.5014 89.4107 53.0294 88.8773 53.7014 88.504C54.384 88.1307 55.1627 87.944 56.0374 87.944C57.1574 87.944 58.0907 88.2373 58.8374 88.824C59.5947 89.4107 60.0907 90.2373 60.3254 91.304H57.4134C57.168 90.6213 56.6934 90.28 55.9894 90.28C55.488 90.28 55.088 90.4773 54.7894 90.872C54.4907 91.256 54.3414 91.8107 54.3414 92.536C54.3414 93.2613 54.4907 93.8213 54.7894 94.216C55.088 94.6 55.488 94.792 55.9894 94.792C56.6934 94.792 57.168 94.4507 57.4134 93.768H60.3254C60.0907 94.8133 59.5947 95.6347 58.8374 96.232C58.08 96.8293 57.1467 97.128 56.0374 97.128C55.1627 97.128 54.384 96.9413 53.7014 96.568C53.0294 96.1947 52.5014 95.6613 52.1174 94.968C51.744 94.2747 51.5574 93.464 51.5574 92.536ZM64.5249 89.56C64.8449 89.0693 65.2449 88.6853 65.7249 88.408C66.2049 88.12 66.7382 87.976 67.3249 87.976V90.872H66.5729C65.8902 90.872 65.3782 91.0213 65.0369 91.32C64.6955 91.608 64.5249 92.12 64.5249 92.856V97H61.7889V88.072H64.5249V89.56ZM70.0086 87.144C69.5286 87.144 69.134 87.0053 68.8246 86.728C68.526 86.44 68.3766 86.088 68.3766 85.672C68.3766 85.2453 68.526 84.8933 68.8246 84.616C69.134 84.328 69.5286 84.184 70.0086 84.184C70.478 84.184 70.862 84.328 71.1606 84.616C71.47 84.8933 71.6246 85.2453 71.6246 85.672C71.6246 86.088 71.47 86.44 71.1606 86.728C70.862 87.0053 70.478 87.144 70.0086 87.144ZM71.3686 88.072V97H68.6326V88.072H71.3686ZM76.0874 89.336C76.354 88.92 76.722 88.584 77.1914 88.328C77.6607 88.072 78.21 87.944 78.8394 87.944C79.5754 87.944 80.242 88.1307 80.8394 88.504C81.4367 88.8773 81.906 89.4107 82.2474 90.104C82.5994 90.7973 82.7754 91.6027 82.7754 92.52C82.7754 93.4373 82.5994 94.248 82.2474 94.952C81.906 95.6453 81.4367 96.184 80.8394 96.568C80.242 96.9413 79.5754 97.128 78.8394 97.128C78.2207 97.128 77.6714 97 77.1914 96.744C76.722 96.488 76.354 96.1573 76.0874 95.752V101.256H73.3514V88.072H76.0874V89.336ZM79.9914 92.52C79.9914 91.8373 79.7994 91.304 79.4154 90.92C79.042 90.5253 78.578 90.328 78.0234 90.328C77.4794 90.328 77.0154 90.5253 76.6314 90.92C76.258 91.3147 76.0714 91.8533 76.0714 92.536C76.0714 93.2187 76.258 93.7573 76.6314 94.152C77.0154 94.5467 77.4794 94.744 78.0234 94.744C78.5674 94.744 79.0314 94.5467 79.4154 94.152C79.7994 93.7467 79.9914 93.2027 79.9914 92.52ZM89.1868 94.68V97H87.7948C86.8028 97 86.0294 96.76 85.4748 96.28C84.9201 95.7893 84.6428 94.9947 84.6428 93.896V90.344H83.5548V88.072H84.6428V85.896H87.3788V88.072H89.1708V90.344H87.3788V93.928C87.3788 94.1947 87.4428 94.3867 87.5708 94.504C87.6988 94.6213 87.9121 94.68 88.2108 94.68H89.1868Z" fill="white"/>
</svg>
