<svg width="88" height="102" viewBox="0 0 88 102" fill="none" xmlns="http://www.w3.org/2000/svg">
<path d="M36.7256 66.8917C32.6823 65.7545 29.1264 63.6607 26.0217 60.7365C25.0469 61.0794 24.0542 61.4224 23.0433 61.7473C22.574 61.8917 22.1047 61.8375 21.6173 61.657C20.7509 61.3321 20.2274 60.7004 19.8484 59.9242C19.3249 58.8953 18.657 57.9567 18.1336 56.9278C17.6643 55.9711 16.9783 55.1408 16.5812 54.148C16.3827 53.6607 15.8592 53.3357 15.8592 52.722C15.3899 51.9639 15.8412 51.296 16.1119 50.6282C16.1841 50.4477 16.2744 50.213 16.4368 50.1408C17.0866 49.852 17.4116 49.2022 17.9531 48.8051C18.2058 48.6245 18.4765 48.426 18.7653 48.2094C18.3502 46.1336 17.9892 44.0578 17.9892 41.9278C17.9892 39.8159 18.3682 37.7762 18.7653 35.7545C18.0614 35.1047 17.4116 34.4729 16.7256 33.8773C16.0217 33.2635 15.6065 32.5054 15.6968 31.7112C15.7509 31.278 15.8773 30.8087 16.0939 30.4477C16.7617 29.3827 17.3755 28.2635 18.0253 27.1805C18.5487 26.3141 19 25.4116 19.5776 24.5632C19.8845 24.13 20.065 23.6245 20.3718 23.1733C20.9675 22.3249 22.1588 21.9097 23.1336 22.1986C24 22.4513 24.8123 22.8303 25.6968 22.9928C25.787 23.0108 25.8592 23.1372 25.9495 23.2274C29.0722 20.3213 32.6282 18.2455 36.7076 17.0361C36.87 16.5487 36.9061 16.0253 37.1047 15.5199C37.2491 15.1408 37.213 14.6715 37.2852 14.2563C37.4838 13.1733 38.1516 12.5415 39.1083 12.2166C39.4513 12.1083 39.7942 12 40.2094 12C42.7365 12.0361 45.2635 12.0361 47.7906 12C48.5126 12 49.1264 12.2888 49.704 12.6137C50.2274 12.8845 50.5162 13.4621 50.6607 14.0036C50.9134 14.9964 51.0578 16.0072 51.2563 17.0542C55.3177 18.2094 58.8736 20.2852 61.9783 23.2094C62.9531 22.8664 63.9459 22.5235 64.9567 22.1986C65.426 22.0542 65.8953 22.1083 66.3827 22.2888C67.2491 22.6137 67.7726 23.2455 68.1516 24.0217C68.6751 25.0505 69.343 25.9892 69.8664 27.0181C70.3357 27.9747 71.0217 28.8051 71.4188 29.7978C71.6173 30.2852 72.1408 30.6101 72.1408 31.2238C72.6101 31.982 72.1588 32.6498 71.8881 33.3177C71.8159 33.4982 71.7256 33.7329 71.5632 33.8051C70.9134 34.0939 70.5885 34.7437 70.0469 35.1408C69.7942 35.3213 69.5235 35.5199 69.2347 35.7365C69.6498 37.8123 70.0108 39.8881 70.0108 42.018C70.0108 44.13 69.6859 46.1697 69.2347 48.1913C69.9386 48.8412 70.5885 49.4729 71.2744 50.0686C71.9783 50.6823 72.3935 51.4404 72.3033 52.2347C72.2491 52.6679 72.1408 53.1372 71.9061 53.4982C71.2563 54.5451 70.6426 55.6282 70.0108 56.6931C69.2166 58.0108 68.5668 59.4368 67.6462 60.6823C67.4838 61.3682 66.8339 61.4224 66.3646 61.6751C65.8592 61.9458 65.3538 61.8736 64.7942 61.7112C63.9639 61.4765 63.1697 61.0614 62.3033 60.9531C62.213 60.935 62.1408 60.8087 62.0505 60.7184C58.9278 63.6607 55.3899 65.7545 51.2563 66.9278C51.0578 67.9025 50.8773 68.9134 50.6607 69.9061C50.444 70.8809 49.7942 71.4946 48.8736 71.7834C48.5307 71.8917 48.1697 72 47.7726 72C45.2455 71.9639 42.7184 71.9639 40.1913 72C39.4693 72 38.8556 71.7112 38.278 71.3863C37.7545 71.1155 37.4477 70.5379 37.3394 69.9964C37.1408 68.9314 36.9422 67.9386 36.7256 66.8917ZM37.8989 50.9892C38.2599 50.7906 38.6751 50.6643 38.6931 50.231C38.7292 49.5812 38.8195 48.9134 38.6751 48.2996C38.4224 47.2527 37.9711 46.2419 37.7004 45.1949C37.5199 44.5271 37.1227 43.8953 37.1408 43.1733C36.5632 41.7473 36.2022 40.2491 35.7148 38.8051C35.3177 37.6137 35.0289 36.3863 34.5957 35.213C34.361 34.5632 34.3069 33.8412 33.8736 33.2635C33.8375 33.2094 33.8195 33.1733 33.8195 33.1733C33.3321 32.8484 32.8267 32.9567 32.3935 32.9567C32.1408 33.1913 31.9242 33.3899 31.7256 33.5704C31.7076 34.148 31.2924 34.5993 31.3646 35.1588C30.7329 36.5668 30.4621 38.083 29.9386 39.5271C29.6679 40.2671 29.5054 41.0253 29.2888 41.7834C29.0903 42.5415 28.657 43.2274 28.657 44.0397C27.9711 45.574 27.6282 47.2166 27.1227 48.8231C26.9964 49.2202 26.9242 49.5993 27.1769 49.9783C27.2491 50.0866 27.213 50.2491 27.213 50.231C27.5018 50.5379 27.7184 50.7545 27.8989 50.9711C28.2419 50.9711 28.6029 50.9711 28.982 50.9711C29.2347 50.6462 29.4874 50.3394 29.722 50.0325C29.6679 49.0036 29.8845 48.3177 30.3538 47.2166C32.1227 47.2166 33.8917 47.2166 35.6607 47.2166C35.8051 47.7942 35.8773 48.3538 36.0758 48.8773C36.1661 49.0939 36.2563 49.3105 36.2202 49.5271C36.1661 50.1949 36.3827 50.7184 37.1408 50.9711C37.3213 50.9892 37.5921 50.9892 37.8989 50.9892ZM42.1227 50.9892C42.6101 50.9531 43.1697 51.0975 43.5668 50.7004C43.7112 50.5199 43.8375 50.3394 44.0181 50.0866C44.0181 48.2816 44.0181 46.3863 44.0181 44.491C45.3357 44.491 46.6354 44.4368 47.917 44.509C48.6931 44.5451 49.3249 44.3105 49.9386 43.9314C50.2274 43.7509 50.4801 43.4801 50.7329 43.2274C51.4007 42.5776 51.7256 41.7834 51.7437 40.8448C51.7437 39.3646 51.7437 37.9025 51.7437 36.4224C51.7437 36.2058 51.6895 35.9711 51.6354 35.7545C51.4368 34.9783 51.0217 34.4007 50.4621 33.8953C49.8123 33.2996 49.0542 32.9386 48.1516 32.9386C46.13 32.9386 44.1264 32.9386 42.0866 32.9386C41.8881 33.1552 41.6895 33.3718 41.4549 33.5884C41.4549 39.148 41.4549 44.7437 41.4549 50.3574C41.6895 50.556 41.9061 50.7726 42.1227 50.9892ZM55.1191 50.9892C56.3646 50.9892 57.6282 50.9892 58.8736 50.9892C59.0903 50.7726 59.3069 50.556 59.5235 50.3574C59.5235 50.0144 59.5235 49.6895 59.5235 49.3466C59.5235 49.3105 59.5235 49.2924 59.5235 49.2744C59.2527 48.769 58.8375 48.4621 58.296 48.4079C58.296 44.0939 58.296 39.7978 58.296 35.5921C58.6931 35.3935 59.0361 35.213 59.4332 34.9964C59.4874 34.5271 59.5235 34.0397 59.5596 33.6968C59.2708 33.3718 59.0722 33.1372 58.9097 32.9567C57.6101 32.9567 56.3466 32.9567 55.2274 32.9567C54.9206 33.2274 54.704 33.426 54.4332 33.6787C54.4874 34.1119 54.5596 34.5993 54.6137 35.0144C55.0469 35.231 55.3899 35.4116 55.6968 35.574C55.6968 39.87 55.6968 44.1661 55.6968 48.426C55.5162 48.4621 55.3177 48.426 55.2455 48.5162C54.9928 48.769 54.5596 48.8412 54.4693 49.2563C54.4693 49.6173 54.4693 49.9783 54.4693 50.3394C54.6859 50.556 54.9025 50.7726 55.1191 50.9892Z" fill="white"/>
<path d="M34.7039 44.4546C33.6389 44.4907 32.5198 44.5088 31.4006 44.5449C31.3645 44.5449 31.3104 44.6171 31.2021 44.7073C31.2201 43.5882 31.8519 42.6857 31.9241 41.6568C32.4656 40.7543 32.5198 39.6893 32.8808 38.6785C32.9891 38.7868 33.1515 38.8951 33.1515 38.9853C33.1696 39.7615 33.6208 40.4294 33.7652 41.1694C33.8736 41.6749 34.1624 42.1622 34.2346 42.6676C34.3068 43.3175 34.74 43.8048 34.7039 44.4546Z" fill="white"/>
<path d="M49.2349 40.9534C49.1085 41.1519 49.0002 41.3505 48.8558 41.531C48.6031 41.8198 48.2782 41.9823 47.863 41.9642C46.5995 41.9462 45.3359 41.9642 44.0363 41.9642C44.0363 39.8162 44.0363 37.6682 44.0363 35.466C45.354 35.466 46.7078 35.448 48.0435 35.466C48.6753 35.4841 49.2168 36.1339 49.2349 36.8198C49.2349 37.957 49.2349 39.0942 49.2349 40.2314C49.2349 40.4841 49.2349 40.7187 49.2349 40.9534Z" fill="white"/>
<path d="M14.5325 97L12.1965 92.76H11.5405V97H8.8045V85.768H13.3965C14.2818 85.768 15.0338 85.9227 15.6525 86.232C16.2818 86.5413 16.7512 86.968 17.0605 87.512C17.3698 88.0453 17.5245 88.6427 17.5245 89.304C17.5245 90.0507 17.3112 90.7173 16.8845 91.304C16.4685 91.8907 15.8498 92.3067 15.0285 92.552L17.6205 97H14.5325ZM11.5405 90.824H13.2365C13.7378 90.824 14.1112 90.7013 14.3565 90.456C14.6125 90.2107 14.7405 89.864 14.7405 89.416C14.7405 88.9893 14.6125 88.6533 14.3565 88.408C14.1112 88.1627 13.7378 88.04 13.2365 88.04H11.5405V90.824ZM27.658 92.392C27.658 92.648 27.642 92.9147 27.61 93.192H21.418C21.4607 93.7467 21.6367 94.1733 21.946 94.472C22.266 94.76 22.6553 94.904 23.114 94.904C23.7967 94.904 24.2713 94.616 24.538 94.04H27.45C27.3007 94.6267 27.0287 95.1547 26.634 95.624C26.25 96.0933 25.7647 96.4613 25.178 96.728C24.5913 96.9947 23.9353 97.128 23.21 97.128C22.3353 97.128 21.5567 96.9413 20.874 96.568C20.1913 96.1947 19.658 95.6613 19.274 94.968C18.89 94.2747 18.698 93.464 18.698 92.536C18.698 91.608 18.8847 90.7973 19.258 90.104C19.642 89.4107 20.1753 88.8773 20.858 88.504C21.5407 88.1307 22.3247 87.944 23.21 87.944C24.074 87.944 24.842 88.1253 25.514 88.488C26.186 88.8507 26.7087 89.368 27.082 90.04C27.466 90.712 27.658 91.496 27.658 92.392ZM24.858 91.672C24.858 91.2027 24.698 90.8293 24.378 90.552C24.058 90.2747 23.658 90.136 23.178 90.136C22.7193 90.136 22.33 90.2693 22.01 90.536C21.7007 90.8027 21.5087 91.1813 21.434 91.672H24.858ZM32.7334 97.128C31.9547 97.128 31.2614 96.9947 30.6534 96.728C30.0454 96.4613 29.5654 96.0987 29.2134 95.64C28.8614 95.1707 28.664 94.648 28.6214 94.072H31.3254C31.3574 94.3813 31.5014 94.632 31.7574 94.824C32.0134 95.016 32.328 95.112 32.7014 95.112C33.0427 95.112 33.304 95.048 33.4854 94.92C33.6774 94.7813 33.7734 94.6053 33.7734 94.392C33.7734 94.136 33.64 93.9493 33.3734 93.832C33.1067 93.704 32.6747 93.5653 32.0774 93.416C31.4374 93.2667 30.904 93.112 30.4774 92.952C30.0507 92.7813 29.6827 92.52 29.3734 92.168C29.064 91.8053 28.9094 91.32 28.9094 90.712C28.9094 90.2 29.048 89.736 29.3254 89.32C29.6134 88.8933 30.0294 88.5573 30.5734 88.312C31.128 88.0667 31.784 87.944 32.5414 87.944C33.6614 87.944 34.5414 88.2213 35.1814 88.776C35.832 89.3307 36.2054 90.0667 36.3014 90.984H33.7734C33.7307 90.6747 33.592 90.4293 33.3574 90.248C33.1334 90.0667 32.8347 89.976 32.4614 89.976C32.1414 89.976 31.896 90.04 31.7254 90.168C31.5547 90.2853 31.4694 90.4507 31.4694 90.664C31.4694 90.92 31.6027 91.112 31.8694 91.24C32.1467 91.368 32.5734 91.496 33.1494 91.624C33.8107 91.7947 34.3494 91.9653 34.7654 92.136C35.1814 92.296 35.544 92.5627 35.8534 92.936C36.1734 93.2987 36.3387 93.7893 36.3494 94.408C36.3494 94.9307 36.2 95.4 35.9014 95.816C35.6134 96.2213 35.192 96.5413 34.6374 96.776C34.0934 97.0107 33.4587 97.128 32.7334 97.128ZM42.9993 94.68V97H41.6073C40.6153 97 39.8419 96.76 39.2873 96.28C38.7326 95.7893 38.4553 94.9947 38.4553 93.896V90.344H37.3673V88.072H38.4553V85.896H41.1913V88.072H42.9833V90.344H41.1913V93.928C41.1913 94.1947 41.2553 94.3867 41.3833 94.504C41.5113 94.6213 41.7246 94.68 42.0233 94.68H42.9993ZM51.4033 90.248V92.52H44.3633V90.248H51.4033ZM60.7965 95.016H56.6045L55.9325 97H53.0685L57.1325 85.768H60.3005L64.3645 97H61.4685L60.7965 95.016ZM60.0925 92.904L58.7005 88.792L57.3245 92.904H60.0925ZM68.3374 89.336C68.604 88.92 68.972 88.584 69.4414 88.328C69.9107 88.072 70.46 87.944 71.0894 87.944C71.8254 87.944 72.492 88.1307 73.0894 88.504C73.6867 88.8773 74.156 89.4107 74.4974 90.104C74.8494 90.7973 75.0254 91.6027 75.0254 92.52C75.0254 93.4373 74.8494 94.248 74.4974 94.952C74.156 95.6453 73.6867 96.184 73.0894 96.568C72.492 96.9413 71.8254 97.128 71.0894 97.128C70.4707 97.128 69.9214 97 69.4414 96.744C68.972 96.488 68.604 96.1573 68.3374 95.752V101.256H65.6014V88.072H68.3374V89.336ZM72.2414 92.52C72.2414 91.8373 72.0494 91.304 71.6654 90.92C71.292 90.5253 70.828 90.328 70.2734 90.328C69.7294 90.328 69.2654 90.5253 68.8814 90.92C68.508 91.3147 68.3214 91.8533 68.3214 92.536C68.3214 93.2187 68.508 93.7573 68.8814 94.152C69.2654 94.5467 69.7294 94.744 70.2734 94.744C70.8174 94.744 71.2814 94.5467 71.6654 94.152C72.0494 93.7467 72.2414 93.2027 72.2414 92.52ZM77.8368 87.144C77.3568 87.144 76.9621 87.0053 76.6528 86.728C76.3541 86.44 76.2048 86.088 76.2048 85.672C76.2048 85.2453 76.3541 84.8933 76.6528 84.616C76.9621 84.328 77.3568 84.184 77.8368 84.184C78.3061 84.184 78.6901 84.328 78.9888 84.616C79.2981 84.8933 79.4528 85.2453 79.4528 85.672C79.4528 86.088 79.2981 86.44 78.9888 86.728C78.6901 87.0053 78.3061 87.144 77.8368 87.144ZM79.1968 88.072V97H76.4608V88.072H79.1968Z" fill="white"/>
</svg>
